<svg width="160" height="32" viewBox="0 0 160 32" fill="none" xmlns="http://www.w3.org/2000/svg">
<rect x="7" y="7" width="18" height="1.07692" rx="0.538462" fill="#333333" stroke="#333333" stroke-width="0.4"/>
<rect x="7" y="15.0781" width="18" height="1.07692" rx="0.538462" fill="#333333" stroke="#333333" stroke-width="0.4"/>
<rect x="7" y="23.1543" width="18" height="1.07692" rx="0.538462" fill="#333333" stroke="#333333" stroke-width="0.4"/>
<path d="M102 26H122V24C122 18.4772 117.523 14 112 14V14C106.477 14 102 18.4772 102 24V26Z" stroke="#333333" stroke-width="1.4"/>
<circle cx="112" cy="11" r="5" fill="white" stroke="#333333" stroke-width="1.4" stroke-linecap="round"/>
<path d="M38 13C38 9.68629 40.6863 7 44 7H59V13.6667C59 13.6667 56.625 13.6667 56.625 16C56.625 18.3333 59 18.3333 59 18.3333V25H44C40.6863 25 38 22.3137 38 19V13Z" stroke="#333333" stroke-width="1.4" stroke-linejoin="round"/>
<rect x="50" y="11" width="2" height="2" rx="1" fill="#333333"/>
<rect x="50" y="15" width="2" height="2" rx="1" fill="#333333"/>
<rect x="50" y="19" width="2" height="2" rx="1" fill="#333333"/>
<path d="M143.5 4.30078C149.686 4.30078 154.7 9.31519 154.7 15.5008C154.7 21.6864 149.686 26.7008 143.5 26.7008C139.283 26.7008 135.61 24.3696 133.699 20.9254L134.934 20.2641C136.608 23.2685 139.817 25.3008 143.5 25.3008C148.913 25.3008 153.3 20.9132 153.3 15.5008C153.3 10.0884 148.913 5.70078 143.5 5.70078V4.30078Z" fill="#333333"/>
<path fill-rule="evenodd" clip-rule="evenodd" d="M143.501 5.70078C143.212 5.70078 142.927 5.71322 142.645 5.73757C142.26 5.77085 141.921 5.4856 141.888 5.10043C141.854 4.71527 142.139 4.37605 142.525 4.34277C142.846 4.31496 143.172 4.30078 143.501 4.30078C143.829 4.30078 144.155 4.31496 144.477 4.34277C144.862 4.37605 145.147 4.71527 145.114 5.10043C145.081 5.4856 144.742 5.77085 144.356 5.73757C144.075 5.71322 143.789 5.70078 143.501 5.70078ZM139.696 5.68604C139.86 6.03632 139.709 6.4529 139.358 6.61652C138.839 6.85901 138.345 7.14575 137.88 7.47195C137.563 7.69397 137.127 7.61738 136.905 7.30089C136.683 6.9844 136.759 6.54785 137.076 6.32583C137.607 5.95317 138.172 5.6254 138.766 5.34808C139.116 5.18446 139.533 5.33577 139.696 5.68604ZM135.301 8.90474C135.617 9.12675 135.694 9.5633 135.472 9.87979C135.146 10.3448 134.859 10.8393 134.617 11.3584C134.453 11.7087 134.036 11.86 133.686 11.6964C133.336 11.5328 133.184 11.1162 133.348 10.7659C133.625 10.1723 133.953 9.60704 134.326 9.0758C134.548 8.75931 134.984 8.68272 135.301 8.90474ZM133.1 13.8875C133.486 13.9208 133.771 14.26 133.738 14.6452C133.713 14.927 133.701 15.2123 133.701 15.5008C133.701 15.7892 133.713 16.0746 133.738 16.3564C133.771 16.7415 133.486 17.0808 133.1 17.114C132.715 17.1473 132.376 16.8621 132.343 16.4769C132.315 16.1551 132.301 15.8295 132.301 15.5008C132.301 15.1721 132.315 14.8465 132.343 14.5247C132.376 14.1395 132.715 13.8542 133.1 13.8875ZM133.686 19.3051C134.036 19.1415 134.453 19.2928 134.617 19.6431C134.859 20.1623 135.146 20.6568 135.472 21.1218C135.694 21.4383 135.617 21.8748 135.301 22.0968C134.984 22.3188 134.548 22.2423 134.326 21.9258C133.953 21.3945 133.625 20.8293 133.348 20.2356C133.184 19.8853 133.336 19.4688 133.686 19.3051Z" fill="#333333"/>
<path d="M143 11V16L147 18" stroke="#333333" stroke-width="1.5" stroke-linecap="round"/>
<path d="M77 26H80H83" stroke="#333333" stroke-width="1.4" stroke-linecap="round" stroke-linejoin="round"/>
<path d="M70 13.7728C70 13.106 70.3323 12.483 70.8861 12.1117L78.8861 6.74697C79.56 6.29509 80.44 6.29509 81.1139 6.74697L89.1139 12.1117C89.6677 12.483 90 13.106 90 13.7728V26H83V21C83 19.3431 81.6569 18 80 18V18V18C78.3431 18 77 19.3431 77 21V26H70V13.7728Z" stroke="#333333" stroke-width="1.4" stroke-linecap="round" stroke-linejoin="round"/>
</svg>
