<svg width="24" height="22" viewBox="0 0 24 22" fill="none" xmlns="http://www.w3.org/2000/svg">
<path d="M22.9121 4.71852C22.8601 4.63644 22.788 4.56878 22.7025 4.52188C22.617 4.47497 22.521 4.45035 22.4233 4.4503H5.07795C4.92069 4.4615 4.77357 4.53156 4.6663 4.64631C4.55903 4.76107 4.4996 4.91197 4.5 5.06856C4.5 5.37769 4.77007 5.81892 5.07795 5.81892H21.4058L18.3636 12.7044H8.31468L4.20033 1.39765C4.16368 1.28475 4.09273 1.18591 3.99721 1.1147C3.9017 1.04349 3.78632 1.00342 3.66694 1H1.57795C1.42467 1 1.27766 1.06048 1.16928 1.16812C1.06089 1.27577 1 1.42177 1 1.574C1 1.88314 1.08912 2.32437 1.40038 2.32437H3.0451L7.15879 13.6318C7.19769 13.752 7.2754 13.8561 7.37988 13.9279C7.48435 13.9998 7.60978 14.0355 7.73673 14.0294H18.8471C18.9612 14.0294 19.0727 13.9958 19.1676 13.933C19.2625 13.8701 19.3366 13.7807 19.3804 13.6761L22.9567 5.46889C23.027 5.22089 23.0113 4.95659 22.9121 4.71852Z" fill="#333333" stroke="#333333" stroke-width="0.2"/>
<path fill-rule="evenodd" clip-rule="evenodd" d="M9.03966 19.7497C9.9743 19.7497 10.732 19.0034 10.732 18.0829C10.732 17.1624 9.9743 16.4161 9.03966 16.4161C8.10503 16.4161 7.34736 17.1624 7.34736 18.0829C7.34736 19.0034 8.10503 19.7497 9.03966 19.7497ZM9.03966 20.9998C10.6753 20.9998 12.0012 19.6939 12.0012 18.0829C12.0012 16.472 10.6753 15.166 9.03966 15.166C7.40405 15.166 6.07812 16.472 6.07812 18.0829C6.07812 19.6939 7.40405 20.9998 9.03966 20.9998Z" fill="#333333" stroke="#333333" stroke-width="0.2"/>
<path fill-rule="evenodd" clip-rule="evenodd" d="M17.4967 19.7497C18.4313 19.7497 19.189 19.0034 19.189 18.0829C19.189 17.1624 18.4313 16.4161 17.4967 16.4161C16.5621 16.4161 15.8044 17.1624 15.8044 18.0829C15.8044 19.0034 16.5621 19.7497 17.4967 19.7497ZM17.4967 20.9998C19.1323 20.9998 20.4582 19.6939 20.4582 18.0829C20.4582 16.472 19.1323 15.166 17.4967 15.166C15.8611 15.166 14.5352 16.472 14.5352 18.0829C14.5352 19.6939 15.8611 20.9998 17.4967 20.9998Z" fill="#333333" stroke="#333333" stroke-width="0.2"/>
</svg>
